<svg width="504" height="503" viewBox="0 0 504 503" fill="none" xmlns="http://www.w3.org/2000/svg">
<rect x="192.3" y="293.47" width="100" height="100" transform="rotate(42.2988 192.3 293.47)" fill="black"/>
<rect x="299.914" y="323.788" width="100" height="100" transform="rotate(42.2988 299.914 323.788)" fill="#FECBC5"/>
<rect x="275.751" y="201.754" width="100" height="100" transform="rotate(42.2988 275.751 201.754)" fill="white"/>
<circle r="59" transform="matrix(-0.739645 -0.672997 -0.672997 0.739645 196.164 225.33)" fill="white"/>
<circle r="14" transform="matrix(-0.739645 -0.672997 -0.672997 0.739645 230.254 257.701)" fill="#FECBC5"/>
<circle r="14" transform="matrix(-0.739645 -0.672997 -0.672997 0.739645 201.988 288.766)" fill="#FF9F94"/>
<circle r="17.4" transform="matrix(0.672997 -0.739645 -0.739645 -0.672997 314.433 133.387)" fill="#FECBC5"/>
<circle r="17.4" transform="matrix(0.672997 -0.739645 -0.739645 -0.672997 275.824 98.2568)" fill="#FF9F94"/>
<circle r="16.9" transform="matrix(-0.739645 -0.672997 -0.672997 0.739645 398.806 289.249)" fill="black"/>
<circle r="6" transform="matrix(-0.672997 0.739645 0.739645 0.672997 109.274 334.198)" fill="black"/>
<circle r="6" transform="matrix(-0.672997 0.739645 0.739645 0.672997 122.588 346.312)" fill="#FF9F94"/>
<circle r="6" transform="matrix(0.739645 0.672997 0.672997 -0.739645 103.029 156.811)" fill="#FECBC5"/>
<circle r="6" transform="matrix(0.739645 0.672997 0.672997 -0.739645 115.143 143.498)" fill="black"/>
<circle r="6" transform="matrix(-0.672997 0.739645 0.739645 0.672997 350.854 128.13)" fill="#FECBC5"/>
<circle r="6" transform="matrix(-0.672997 0.739645 0.739645 0.672997 364.168 140.243)" fill="black"/>
<circle r="6" transform="matrix(-0.672997 0.739645 0.739645 0.672997 255.64 45.5508)" fill="#FECBC5"/>
<circle r="6" transform="matrix(-0.672997 0.739645 0.739645 0.672997 268.953 57.6647)" fill="#FF9F94"/>
<path fill-rule="evenodd" clip-rule="evenodd" d="M353.7 111.791L347.093 105.78L156.788 166.518L163.395 172.53L353.7 111.791ZM167.599 176.355L174.206 182.367L349.79 126.327L358.797 116.429L357.905 115.617L167.599 176.355ZM185.017 192.204L178.41 186.192L343.164 133.609L332.752 145.053L185.017 192.204ZM189.222 196.03L195.829 202.041L315.714 163.778L326.126 152.335L189.222 196.03ZM206.64 211.878L200.033 205.867L309.088 171.06L298.675 182.504L206.64 211.878ZM210.844 215.704L218.346 222.53L280.227 202.78L292.049 189.786L210.844 215.704ZM230.052 233.181L222.55 226.355L273.601 210.062L261.778 223.055L230.052 233.181ZM234.257 237.007L242.368 244.387L255.152 230.338L234.257 237.007ZM336.282 95.9427L342.889 101.954L152.584 162.693L145.977 156.681L336.282 95.9427ZM332.078 92.1172L325.471 86.1056L135.165 146.844L141.772 152.856L332.078 92.1172ZM314.66 76.2685L321.266 82.2801L130.961 143.019L124.354 137.007L314.66 76.2685ZM310.455 72.443L303.848 66.4315L115.775 126.457L114.41 127.959L120.15 133.181L310.455 72.443ZM293.037 56.5944L299.644 62.6059L122.401 119.175L132.814 107.732L293.037 56.5944ZM288.833 52.7689L282.226 46.7573L149.852 89.0062L139.44 100.45L288.833 52.7689ZM271.415 36.9202L278.021 42.9318L156.478 81.724L166.891 70.2804L271.415 36.9202ZM234.853 3.65321L230.838 0L224.511 6.95416L234.853 3.65321ZM217.885 14.2364L206.113 27.1739L246.527 14.2752L239.057 7.47874L217.885 14.2364ZM187.715 47.3936L199.487 34.4561L250.731 18.1007L258.201 24.8971L187.715 47.3936ZM181.089 54.6758L173.517 62.9982L267.21 33.0946L262.405 28.7227L181.089 54.6758Z" fill="black"/>
<rect x="372.57" y="153.297" width="100" height="100" transform="rotate(42.2988 372.57 153.297)" fill="#FECBC5"/>
<rect x="94.9528" y="165.687" width="106" height="100" transform="rotate(42.2988 94.9528 165.687)" fill="#FECBC5"/>
</svg>
