<svg width="154" height="59" viewBox="0 0 154 59" fill="none" xmlns="http://www.w3.org/2000/svg">
<path d="M73.536 32.568C73.536 30.36 73.04 28.6 72.048 27.288C71.056 25.944 69.584 25.272 67.632 25.272C66.992 25.272 66.4 25.304 65.856 25.368C65.312 25.4 64.864 25.448 64.512 25.512V38.424C64.96 38.712 65.536 38.952 66.24 39.144C66.976 39.336 67.712 39.432 68.448 39.432C71.84 39.432 73.536 37.144 73.536 32.568ZM80.832 32.376C80.832 34.328 80.592 36.104 80.112 37.704C79.632 39.304 78.928 40.68 78 41.832C77.072 42.984 75.92 43.88 74.544 44.52C73.168 45.16 71.584 45.48 69.792 45.48C68.8 45.48 67.872 45.384 67.008 45.192C66.144 45 65.312 44.728 64.512 44.376V53.88H57.36V20.616C58 20.424 58.736 20.248 59.568 20.088C60.4 19.896 61.264 19.736 62.16 19.608C63.088 19.48 64.016 19.384 64.944 19.32C65.904 19.224 66.816 19.176 67.68 19.176C69.76 19.176 71.616 19.496 73.248 20.136C74.88 20.744 76.256 21.624 77.376 22.776C78.496 23.896 79.344 25.272 79.92 26.904C80.528 28.536 80.832 30.36 80.832 32.376ZM97.8008 31.608C97.8008 29.304 97.4968 27.672 96.8888 26.712C96.3128 25.752 95.3048 25.272 93.8648 25.272C93.4168 25.272 92.9528 25.304 92.4728 25.368C91.9928 25.4 91.5288 25.448 91.0808 25.512V45H83.9288V20.616C84.5368 20.456 85.2408 20.296 86.0408 20.136C86.8728 19.944 87.7368 19.784 88.6328 19.656C89.5608 19.496 90.5048 19.384 91.4648 19.32C92.4248 19.224 93.3688 19.176 94.2968 19.176C96.1208 19.176 97.5928 19.416 98.7128 19.896C99.8648 20.344 100.809 20.888 101.545 21.528C102.569 20.792 103.737 20.216 105.049 19.8C106.393 19.384 107.625 19.176 108.745 19.176C110.761 19.176 112.409 19.464 113.689 20.04C115.001 20.584 116.041 21.368 116.809 22.392C117.577 23.416 118.105 24.632 118.393 26.04C118.681 27.448 118.825 29.016 118.825 30.744V45H111.673V31.608C111.673 29.304 111.369 27.672 110.761 26.712C110.185 25.752 109.177 25.272 107.737 25.272C107.353 25.272 106.809 25.368 106.105 25.56C105.433 25.752 104.873 25.992 104.425 26.28C104.649 27.016 104.793 27.8 104.857 28.632C104.921 29.432 104.953 30.296 104.953 31.224V45H97.8008V31.608ZM130.167 39.864C131.479 39.864 132.407 39.736 132.951 39.48C133.495 39.224 133.767 38.728 133.767 37.992C133.767 37.416 133.415 36.92 132.711 36.504C132.007 36.056 130.935 35.56 129.495 35.016C128.375 34.6 127.351 34.168 126.423 33.72C125.527 33.272 124.759 32.744 124.119 32.136C123.479 31.496 122.983 30.744 122.631 29.88C122.279 29.016 122.103 27.976 122.103 26.76C122.103 24.392 122.983 22.52 124.743 21.144C126.503 19.768 128.919 19.08 131.991 19.08C133.527 19.08 134.999 19.224 136.407 19.512C137.815 19.768 138.935 20.056 139.767 20.376L138.519 25.944C137.687 25.656 136.775 25.4 135.783 25.176C134.823 24.952 133.735 24.84 132.519 24.84C130.279 24.84 129.159 25.464 129.159 26.712C129.159 27 129.207 27.256 129.303 27.48C129.399 27.704 129.591 27.928 129.879 28.152C130.167 28.344 130.551 28.568 131.031 28.824C131.543 29.048 132.183 29.304 132.951 29.592C134.519 30.168 135.815 30.744 136.839 31.32C137.863 31.864 138.663 32.472 139.239 33.144C139.847 33.784 140.263 34.504 140.487 35.304C140.743 36.104 140.871 37.032 140.871 38.088C140.871 40.584 139.927 42.472 138.039 43.752C136.183 45.032 133.543 45.672 130.119 45.672C127.879 45.672 126.007 45.48 124.503 45.096C123.031 44.712 122.007 44.392 121.431 44.136L122.631 38.328C123.847 38.808 125.095 39.192 126.375 39.48C127.655 39.736 128.919 39.864 130.167 39.864Z" fill="#323232"/>
<rect x="30.9478" y="58.3569" width="15.3316" height="47.0129" rx="7.66579" transform="rotate(-180 30.9478 58.3569)" fill="#03A438"/>
<rect width="15.3316" height="47.0129" rx="7.66579" transform="matrix(0 -1 -1 0 47.1641 42.4814)" fill="#FECBC5"/>
</svg>
