<svg width="20" height="20" viewBox="0 0 20 20" fill="none" xmlns="http://www.w3.org/2000/svg">
<g clip-path="url(#clip0)">
<path d="M19.2189 9.21874H2.67365L5.41443 6.49125C5.72025 6.18687 5.72143 5.69222 5.41705 5.3864C5.11268 5.08054 4.61799 5.07941 4.31217 5.38375L0.229981 9.44624C0.229707 9.44648 0.229512 9.44675 0.229278 9.44698C-0.0757616 9.75136 -0.0767381 10.2476 0.229199 10.553C0.229473 10.5532 0.229668 10.5535 0.229903 10.5537L4.31209 14.6162C4.61787 14.9205 5.11256 14.9195 5.41697 14.6136C5.72135 14.3078 5.72018 13.8131 5.41436 13.5087L2.67365 10.7812H19.2189C19.6504 10.7812 20.0001 10.4315 20.0001 9.99999C20.0001 9.56851 19.6504 9.21874 19.2189 9.21874Z" fill="#03A438"/>
</g>
<defs>
<clipPath id="clip0">
<rect width="20" height="20" fill="white"/>
</clipPath>
</defs>
</svg>
