<svg width="20" height="20" viewBox="0 0 20 20" fill="none" xmlns="http://www.w3.org/2000/svg">
<rect width="19.3333" height="20" transform="translate(0.27832)" fill="white"/>
<path d="M6.31999 10C6.31999 9.83424 6.38364 9.67527 6.49694 9.55806C6.61025 9.44085 6.76392 9.375 6.92415 9.375H12.3617V5.3125C12.3617 4.0625 11.0857 3.125 9.94499 3.125H4.2054C3.64477 3.12562 3.10726 3.35629 2.71083 3.76639C2.3144 4.17649 2.09142 4.73253 2.09082 5.3125V14.6875C2.09142 15.2675 2.3144 15.8235 2.71083 16.2336C3.10726 16.6437 3.64477 16.8744 4.2054 16.875H10.2471C10.8077 16.8744 11.3452 16.6437 11.7416 16.2336C12.1381 15.8235 12.3611 15.2675 12.3617 14.6875V10.625H6.92415C6.76392 10.625 6.61025 10.5592 6.49694 10.4419C6.38364 10.3247 6.31999 10.1658 6.31999 10ZM17.6221 9.5582L14.6012 6.4332C14.487 6.32094 14.3349 6.25928 14.1774 6.26137C14.0198 6.26345 13.8693 6.32912 13.7579 6.44437C13.6465 6.55962 13.583 6.71534 13.581 6.87831C13.579 7.04129 13.6386 7.19863 13.7471 7.3168L15.7363 9.375H12.3617V10.625H15.7363L13.7471 12.6832C13.6886 12.7407 13.6419 12.8096 13.6096 12.8861C13.5773 12.9625 13.5601 13.0449 13.5591 13.1283C13.5581 13.2117 13.5732 13.2945 13.6036 13.3718C13.634 13.4491 13.679 13.5193 13.736 13.5783C13.793 13.6372 13.8609 13.6838 13.9356 13.7153C14.0103 13.7467 14.0903 13.7623 14.171 13.7613C14.2516 13.7602 14.3312 13.7424 14.4051 13.709C14.479 13.6756 14.5457 13.6273 14.6012 13.5668L17.6221 10.4418C17.7353 10.3246 17.7989 10.1657 17.7989 10C17.7989 9.83431 17.7353 9.6754 17.6221 9.5582V9.5582Z" fill="#EFF0F7"/>
</svg>
