<svg width="79" height="78" viewBox="0 0 79 78" fill="none" xmlns="http://www.w3.org/2000/svg">
<path d="M39.0017 0C17.4639 0 0 17.4605 0 39C0 60.5395 17.4622 78 39.0017 78C60.5429 78 78.0034 60.5395 78.0034 39C78.0034 17.4605 60.5429 0 39.0017 0ZM39.0017 11.6615C46.1285 11.6615 51.9035 17.4382 51.9035 24.5615C51.9035 31.6865 46.1285 37.4616 39.0017 37.4616C31.8784 37.4616 26.1034 31.6865 26.1034 24.5615C26.1034 17.4382 31.8784 11.6615 39.0017 11.6615ZM38.9932 67.8033C31.8853 67.8033 25.3753 65.2147 20.354 60.9301C19.1308 59.8868 18.425 58.357 18.425 56.7517C18.425 49.5273 24.272 43.7454 31.4981 43.7454H46.5088C53.7366 43.7454 59.5613 49.5273 59.5613 56.7517C59.5613 58.3587 58.8589 59.8851 57.634 60.9284C52.6145 65.2147 46.1028 67.8033 38.9932 67.8033Z" fill="#CDCED2"/>
</svg>
