<svg width="15" height="15" viewBox="0 0 15 15" fill="none" xmlns="http://www.w3.org/2000/svg">
<path d="M11.7774 4.92188C11.6915 6.11338 10.8076 7.03125 9.84376 7.03125C8.87989 7.03125 7.99454 6.11367 7.91017 4.92188C7.82228 3.68232 8.68273 2.8125 9.84376 2.8125C11.0048 2.8125 11.8652 3.70488 11.7774 4.92188Z" stroke="#595959" stroke-width="0.9375" stroke-linecap="round" stroke-linejoin="round"/>
<path d="M9.84376 8.90625C7.93448 8.90625 6.09844 9.85459 5.63848 11.7015C5.57755 11.9458 5.73077 12.1875 5.98184 12.1875H13.706C13.957 12.1875 14.1094 11.9458 14.0493 11.7015C13.5894 9.825 11.7533 8.90625 9.84376 8.90625Z" stroke="#595959" stroke-width="0.9375" stroke-miterlimit="10"/>
<path d="M5.85938 5.44746C5.79083 6.39902 5.07657 7.14844 4.30665 7.14844C3.53672 7.14844 2.82129 6.39932 2.75391 5.44746C2.68389 4.45752 3.37911 3.75 4.30665 3.75C5.23419 3.75 5.9294 4.47568 5.85938 5.44746Z" stroke="#595959" stroke-width="0.9375" stroke-linecap="round" stroke-linejoin="round"/>
<path d="M6.03517 8.96484C5.50636 8.72256 4.92394 8.62939 4.30665 8.62939C2.78322 8.62939 1.31544 9.38672 0.947766 10.8618C0.899426 11.0569 1.02189 11.25 1.22228 11.25H4.51173" stroke="#595959" stroke-width="0.9375" stroke-miterlimit="10" stroke-linecap="round"/>
</svg>
